<?xml version="1.0" encoding="utf-8" standalone="no"?>
<!DOCTYPE svg PUBLIC "-//W3C//DTD SVG 1.1//EN"
  "http://www.w3.org/Graphics/SVG/1.1/DTD/svg11.dtd">
<svg xmlns:xlink="http://www.w3.org/1999/xlink" width="432pt" height="576pt" viewBox="0 0 432 576" xmlns="http://www.w3.org/2000/svg" version="1.1">
 <metadata>
  <rdf:RDF xmlns:dc="http://purl.org/dc/elements/1.1/" xmlns:cc="http://creativecommons.org/ns#" xmlns:rdf="http://www.w3.org/1999/02/22-rdf-syntax-ns#">
   <cc:Work>
    <dc:type rdf:resource="http://purl.org/dc/dcmitype/StillImage"/>
    <dc:date>2025-08-03T21:35:34.301090</dc:date>
    <dc:format>image/svg+xml</dc:format>
    <dc:creator>
     <cc:Agent>
      <dc:title>Matplotlib v3.10.5, https://matplotlib.org/</dc:title>
     </cc:Agent>
    </dc:creator>
   </cc:Work>
  </rdf:RDF>
 </metadata>
 <defs>
  <style type="text/css">*{stroke-linejoin: round; stroke-linecap: butt}</style>
 </defs>
 <g id="figure_1">
  <g id="patch_1">
   <path d="M 0 576 
L 432 576 
L 432 0 
L 0 0 
z
" style="fill: #ffffff"/>
  </g>
  <g id="axes_1">
   <g id="patch_2">
    <path d="M 65.16 116.340467 
L 419.04 116.340467 
L 419.04 29.193375 
L 65.16 29.193375 
z
" style="fill: #ffffff"/>
   </g>
   <g id="matplotlib.axis_1">
    <g id="xtick_1">
     <g id="text_1">
      <!-- Imaging -->
      <g style="fill: #262626" transform="translate(109.417177 132.99828) scale(0.1 -0.1)">
       <defs>
        <path id="ArialMT-49" d="M 597 0 
L 597 4581 
L 1203 4581 
L 1203 0 
L 597 0 
z
" transform="scale(0.015625)"/>
        <path id="ArialMT-6d" d="M 422 0 
L 422 3319 
L 925 3319 
L 925 2853 
Q 1081 3097 1340 3245 
Q 1600 3394 1931 3394 
Q 2300 3394 2536 3241 
Q 2772 3088 2869 2813 
Q 3263 3394 3894 3394 
Q 4388 3394 4653 3120 
Q 4919 2847 4919 2278 
L 4919 0 
L 4359 0 
L 4359 2091 
Q 4359 2428 4304 2576 
Q 4250 2725 4106 2815 
Q 3963 2906 3769 2906 
Q 3419 2906 3187 2673 
Q 2956 2441 2956 1928 
L 2956 0 
L 2394 0 
L 2394 2156 
Q 2394 2531 2256 2718 
Q 2119 2906 1806 2906 
Q 1569 2906 1367 2781 
Q 1166 2656 1075 2415 
Q 984 2175 984 1722 
L 984 0 
L 422 0 
z
" transform="scale(0.015625)"/>
        <path id="ArialMT-61" d="M 2588 409 
Q 2275 144 1986 34 
Q 1697 -75 1366 -75 
Q 819 -75 525 192 
Q 231 459 231 875 
Q 231 1119 342 1320 
Q 453 1522 633 1644 
Q 813 1766 1038 1828 
Q 1203 1872 1538 1913 
Q 2219 1994 2541 2106 
Q 2544 2222 2544 2253 
Q 2544 2597 2384 2738 
Q 2169 2928 1744 2928 
Q 1347 2928 1158 2789 
Q 969 2650 878 2297 
L 328 2372 
Q 403 2725 575 2942 
Q 747 3159 1072 3276 
Q 1397 3394 1825 3394 
Q 2250 3394 2515 3294 
Q 2781 3194 2906 3042 
Q 3031 2891 3081 2659 
Q 3109 2516 3109 2141 
L 3109 1391 
Q 3109 606 3145 398 
Q 3181 191 3288 0 
L 2700 0 
Q 2613 175 2588 409 
z
M 2541 1666 
Q 2234 1541 1622 1453 
Q 1275 1403 1131 1340 
Q 988 1278 909 1158 
Q 831 1038 831 891 
Q 831 666 1001 516 
Q 1172 366 1500 366 
Q 1825 366 2078 508 
Q 2331 650 2450 897 
Q 2541 1088 2541 1459 
L 2541 1666 
z
" transform="scale(0.015625)"/>
        <path id="ArialMT-67" d="M 319 -275 
L 866 -356 
Q 900 -609 1056 -725 
Q 1266 -881 1628 -881 
Q 2019 -881 2231 -725 
Q 2444 -569 2519 -288 
Q 2563 -116 2559 434 
Q 2191 0 1641 0 
Q 956 0 581 494 
Q 206 988 206 1678 
Q 206 2153 378 2554 
Q 550 2956 876 3175 
Q 1203 3394 1644 3394 
Q 2231 3394 2613 2919 
L 2613 3319 
L 3131 3319 
L 3131 450 
Q 3131 -325 2973 -648 
Q 2816 -972 2473 -1159 
Q 2131 -1347 1631 -1347 
Q 1038 -1347 672 -1080 
Q 306 -813 319 -275 
z
M 784 1719 
Q 784 1066 1043 766 
Q 1303 466 1694 466 
Q 2081 466 2343 764 
Q 2606 1063 2606 1700 
Q 2606 2309 2336 2618 
Q 2066 2928 1684 2928 
Q 1309 2928 1046 2623 
Q 784 2319 784 1719 
z
" transform="scale(0.015625)"/>
        <path id="ArialMT-69" d="M 425 3934 
L 425 4581 
L 988 4581 
L 988 3934 
L 425 3934 
z
M 425 0 
L 425 3319 
L 988 3319 
L 988 0 
L 425 0 
z
" transform="scale(0.015625)"/>
        <path id="ArialMT-6e" d="M 422 0 
L 422 3319 
L 928 3319 
L 928 2847 
Q 1294 3394 1984 3394 
Q 2284 3394 2536 3286 
Q 2788 3178 2913 3003 
Q 3038 2828 3088 2588 
Q 3119 2431 3119 2041 
L 3119 0 
L 2556 0 
L 2556 2019 
Q 2556 2363 2490 2533 
Q 2425 2703 2258 2804 
Q 2091 2906 1866 2906 
Q 1506 2906 1245 2678 
Q 984 2450 984 1813 
L 984 0 
L 422 0 
z
" transform="scale(0.015625)"/>
       </defs>
       <use xlink:href="#ArialMT-49"/>
       <use xlink:href="#ArialMT-6d" transform="translate(27.783203 0)"/>
       <use xlink:href="#ArialMT-61" transform="translate(111.083984 0)"/>
       <use xlink:href="#ArialMT-67" transform="translate(166.699219 0)"/>
       <use xlink:href="#ArialMT-69" transform="translate(222.314453 0)"/>
       <use xlink:href="#ArialMT-6e" transform="translate(244.53125 0)"/>
       <use xlink:href="#ArialMT-67" transform="translate(300.146484 0)"/>
      </g>
     </g>
    </g>
    <g id="xtick_2">
     <g id="text_2">
      <!-- Other -->
      <g style="fill: #262626" transform="translate(229.596094 132.99828) scale(0.1 -0.1)">
       <defs>
        <path id="ArialMT-4f" d="M 309 2231 
Q 309 3372 921 4017 
Q 1534 4663 2503 4663 
Q 3138 4663 3647 4359 
Q 4156 4056 4423 3514 
Q 4691 2972 4691 2284 
Q 4691 1588 4409 1038 
Q 4128 488 3612 205 
Q 3097 -78 2500 -78 
Q 1853 -78 1343 234 
Q 834 547 571 1087 
Q 309 1628 309 2231 
z
M 934 2222 
Q 934 1394 1379 917 
Q 1825 441 2497 441 
Q 3181 441 3623 922 
Q 4066 1403 4066 2288 
Q 4066 2847 3877 3264 
Q 3688 3681 3323 3911 
Q 2959 4141 2506 4141 
Q 1863 4141 1398 3698 
Q 934 3256 934 2222 
z
" transform="scale(0.015625)"/>
        <path id="ArialMT-74" d="M 1650 503 
L 1731 6 
Q 1494 -44 1306 -44 
Q 1000 -44 831 53 
Q 663 150 594 308 
Q 525 466 525 972 
L 525 2881 
L 113 2881 
L 113 3319 
L 525 3319 
L 525 4141 
L 1084 4478 
L 1084 3319 
L 1650 3319 
L 1650 2881 
L 1084 2881 
L 1084 941 
Q 1084 700 1114 631 
Q 1144 563 1211 522 
Q 1278 481 1403 481 
Q 1497 481 1650 503 
z
" transform="scale(0.015625)"/>
        <path id="ArialMT-68" d="M 422 0 
L 422 4581 
L 984 4581 
L 984 2938 
Q 1378 3394 1978 3394 
Q 2347 3394 2619 3248 
Q 2891 3103 3008 2847 
Q 3125 2591 3125 2103 
L 3125 0 
L 2563 0 
L 2563 2103 
Q 2563 2525 2380 2717 
Q 2197 2909 1863 2909 
Q 1613 2909 1392 2779 
Q 1172 2650 1078 2428 
Q 984 2206 984 1816 
L 984 0 
L 422 0 
z
" transform="scale(0.015625)"/>
        <path id="ArialMT-65" d="M 2694 1069 
L 3275 997 
Q 3138 488 2766 206 
Q 2394 -75 1816 -75 
Q 1088 -75 661 373 
Q 234 822 234 1631 
Q 234 2469 665 2931 
Q 1097 3394 1784 3394 
Q 2450 3394 2872 2941 
Q 3294 2488 3294 1666 
Q 3294 1616 3291 1516 
L 816 1516 
Q 847 969 1125 678 
Q 1403 388 1819 388 
Q 2128 388 2347 550 
Q 2566 713 2694 1069 
z
M 847 1978 
L 2700 1978 
Q 2663 2397 2488 2606 
Q 2219 2931 1791 2931 
Q 1403 2931 1139 2672 
Q 875 2413 847 1978 
z
" transform="scale(0.015625)"/>
        <path id="ArialMT-72" d="M 416 0 
L 416 3319 
L 922 3319 
L 922 2816 
Q 1116 3169 1280 3281 
Q 1444 3394 1641 3394 
Q 1925 3394 2219 3213 
L 2025 2691 
Q 1819 2813 1613 2813 
Q 1428 2813 1281 2702 
Q 1134 2591 1072 2394 
Q 978 2094 978 1738 
L 978 0 
L 416 0 
z
" transform="scale(0.015625)"/>
       </defs>
       <use xlink:href="#ArialMT-4f"/>
       <use xlink:href="#ArialMT-74" transform="translate(77.783203 0)"/>
       <use xlink:href="#ArialMT-68" transform="translate(105.566406 0)"/>
       <use xlink:href="#ArialMT-65" transform="translate(161.181641 0)"/>
       <use xlink:href="#ArialMT-72" transform="translate(216.796875 0)"/>
      </g>
     </g>
    </g>
    <g id="xtick_3">
     <g id="text_3">
      <!-- Time Series -->
      <g style="fill: #262626" transform="translate(330.51251 132.99828) scale(0.1 -0.1)">
       <defs>
        <path id="ArialMT-54" d="M 1659 0 
L 1659 4041 
L 150 4041 
L 150 4581 
L 3781 4581 
L 3781 4041 
L 2266 4041 
L 2266 0 
L 1659 0 
z
" transform="scale(0.015625)"/>
        <path id="ArialMT-20" transform="scale(0.015625)"/>
        <path id="ArialMT-53" d="M 288 1472 
L 859 1522 
Q 900 1178 1048 958 
Q 1197 738 1509 602 
Q 1822 466 2213 466 
Q 2559 466 2825 569 
Q 3091 672 3220 851 
Q 3350 1031 3350 1244 
Q 3350 1459 3225 1620 
Q 3100 1781 2813 1891 
Q 2628 1963 1997 2114 
Q 1366 2266 1113 2400 
Q 784 2572 623 2826 
Q 463 3081 463 3397 
Q 463 3744 659 4045 
Q 856 4347 1234 4503 
Q 1613 4659 2075 4659 
Q 2584 4659 2973 4495 
Q 3363 4331 3572 4012 
Q 3781 3694 3797 3291 
L 3216 3247 
Q 3169 3681 2898 3903 
Q 2628 4125 2100 4125 
Q 1550 4125 1298 3923 
Q 1047 3722 1047 3438 
Q 1047 3191 1225 3031 
Q 1400 2872 2139 2705 
Q 2878 2538 3153 2413 
Q 3553 2228 3743 1945 
Q 3934 1663 3934 1294 
Q 3934 928 3725 604 
Q 3516 281 3123 101 
Q 2731 -78 2241 -78 
Q 1619 -78 1198 103 
Q 778 284 539 648 
Q 300 1013 288 1472 
z
" transform="scale(0.015625)"/>
        <path id="ArialMT-73" d="M 197 991 
L 753 1078 
Q 800 744 1014 566 
Q 1228 388 1613 388 
Q 2000 388 2187 545 
Q 2375 703 2375 916 
Q 2375 1106 2209 1216 
Q 2094 1291 1634 1406 
Q 1016 1563 777 1677 
Q 538 1791 414 1992 
Q 291 2194 291 2438 
Q 291 2659 392 2848 
Q 494 3038 669 3163 
Q 800 3259 1026 3326 
Q 1253 3394 1513 3394 
Q 1903 3394 2198 3281 
Q 2494 3169 2634 2976 
Q 2775 2784 2828 2463 
L 2278 2388 
Q 2241 2644 2061 2787 
Q 1881 2931 1553 2931 
Q 1166 2931 1000 2803 
Q 834 2675 834 2503 
Q 834 2394 903 2306 
Q 972 2216 1119 2156 
Q 1203 2125 1616 2013 
Q 2213 1853 2448 1751 
Q 2684 1650 2818 1456 
Q 2953 1263 2953 975 
Q 2953 694 2789 445 
Q 2625 197 2315 61 
Q 2006 -75 1616 -75 
Q 969 -75 630 194 
Q 291 463 197 991 
z
" transform="scale(0.015625)"/>
       </defs>
       <use xlink:href="#ArialMT-54"/>
       <use xlink:href="#ArialMT-69" transform="translate(57.333984 0)"/>
       <use xlink:href="#ArialMT-6d" transform="translate(79.550781 0)"/>
       <use xlink:href="#ArialMT-65" transform="translate(162.851562 0)"/>
       <use xlink:href="#ArialMT-20" transform="translate(218.466797 0)"/>
       <use xlink:href="#ArialMT-53" transform="translate(246.25 0)"/>
       <use xlink:href="#ArialMT-65" transform="translate(312.949219 0)"/>
       <use xlink:href="#ArialMT-72" transform="translate(368.564453 0)"/>
       <use xlink:href="#ArialMT-69" transform="translate(401.865234 0)"/>
       <use xlink:href="#ArialMT-65" transform="translate(424.082031 0)"/>
       <use xlink:href="#ArialMT-73" transform="translate(479.697266 0)"/>
      </g>
     </g>
    </g>
   </g>
   <g id="matplotlib.axis_2">
    <g id="ytick_1">
     <g id="text_4">
      <!-- $\mathdefault{0.0}$ -->
      <g style="fill: #262626" transform="translate(41.66 119.919373) scale(0.1 -0.1)">
       <defs>
        <path id="ArialMT-30" d="M 266 2259 
Q 266 3072 433 3567 
Q 600 4063 929 4331 
Q 1259 4600 1759 4600 
Q 2128 4600 2406 4451 
Q 2684 4303 2865 4023 
Q 3047 3744 3150 3342 
Q 3253 2941 3253 2259 
Q 3253 1453 3087 958 
Q 2922 463 2592 192 
Q 2263 -78 1759 -78 
Q 1097 -78 719 397 
Q 266 969 266 2259 
z
M 844 2259 
Q 844 1131 1108 757 
Q 1372 384 1759 384 
Q 2147 384 2411 759 
Q 2675 1134 2675 2259 
Q 2675 3391 2411 3762 
Q 2147 4134 1753 4134 
Q 1366 4134 1134 3806 
Q 844 3388 844 2259 
z
" transform="scale(0.015625)"/>
        <path id="ArialMT-2e" d="M 581 0 
L 581 641 
L 1222 641 
L 1222 0 
L 581 0 
z
" transform="scale(0.015625)"/>
       </defs>
       <use xlink:href="#ArialMT-30" transform="translate(0 0.125)"/>
       <use xlink:href="#ArialMT-2e" transform="translate(55.615234 0.125)"/>
       <use xlink:href="#ArialMT-30" transform="translate(83.398438 0.125)"/>
      </g>
     </g>
    </g>
    <g id="ytick_2">
     <g id="text_5">
      <!-- $\mathdefault{0.5}$ -->
      <g style="fill: #262626" transform="translate(41.66 87.914148) scale(0.1 -0.1)">
       <defs>
        <path id="ArialMT-35" d="M 266 1200 
L 856 1250 
Q 922 819 1161 601 
Q 1400 384 1738 384 
Q 2144 384 2425 690 
Q 2706 997 2706 1503 
Q 2706 1984 2436 2262 
Q 2166 2541 1728 2541 
Q 1456 2541 1237 2417 
Q 1019 2294 894 2097 
L 366 2166 
L 809 4519 
L 3088 4519 
L 3088 3981 
L 1259 3981 
L 1013 2750 
Q 1425 3038 1878 3038 
Q 2478 3038 2890 2622 
Q 3303 2206 3303 1553 
Q 3303 931 2941 478 
Q 2500 -78 1738 -78 
Q 1113 -78 717 272 
Q 322 622 266 1200 
z
" transform="scale(0.015625)"/>
       </defs>
       <use xlink:href="#ArialMT-30" transform="translate(0 0.125)"/>
       <use xlink:href="#ArialMT-2e" transform="translate(55.615234 0.125)"/>
       <use xlink:href="#ArialMT-35" transform="translate(83.398438 0.125)"/>
      </g>
     </g>
    </g>
    <g id="ytick_3">
     <g id="text_6">
      <!-- $\mathdefault{1.0}$ -->
      <g style="fill: #262626" transform="translate(41.66 55.908923) scale(0.1 -0.1)">
       <defs>
        <path id="ArialMT-31" d="M 2384 0 
L 1822 0 
L 1822 3584 
Q 1619 3391 1289 3197 
Q 959 3003 697 2906 
L 697 3450 
Q 1169 3672 1522 3987 
Q 1875 4303 2022 4600 
L 2384 4600 
L 2384 0 
z
" transform="scale(0.015625)"/>
       </defs>
       <use xlink:href="#ArialMT-31" transform="translate(0 0.125)"/>
       <use xlink:href="#ArialMT-2e" transform="translate(55.615234 0.125)"/>
       <use xlink:href="#ArialMT-30" transform="translate(83.398438 0.125)"/>
      </g>
     </g>
    </g>
    <g id="text_7">
     <!-- Files -->
     <g style="fill: #262626" transform="translate(35.275 85.434421) rotate(-90) scale(0.12 -0.12)">
      <defs>
       <path id="ArialMT-46" d="M 525 0 
L 525 4581 
L 3616 4581 
L 3616 4041 
L 1131 4041 
L 1131 2622 
L 3281 2622 
L 3281 2081 
L 1131 2081 
L 1131 0 
L 525 0 
z
" transform="scale(0.015625)"/>
       <path id="ArialMT-6c" d="M 409 0 
L 409 4581 
L 972 4581 
L 972 0 
L 409 0 
z
" transform="scale(0.015625)"/>
      </defs>
      <use xlink:href="#ArialMT-46"/>
      <use xlink:href="#ArialMT-69" transform="translate(61.083984 0)"/>
      <use xlink:href="#ArialMT-6c" transform="translate(83.300781 0)"/>
      <use xlink:href="#ArialMT-65" transform="translate(105.517578 0)"/>
      <use xlink:href="#ArialMT-73" transform="translate(161.132812 0)"/>
     </g>
    </g>
    <g id="text_8">
     <!-- $\times\mathdefault{10^{5}}\mathdefault{}$ -->
     <g style="fill: #262626" transform="translate(65.16 26.193375) scale(0.1 -0.1)">
      <defs>
       <path id="DejaVuSans-d7" d="M 4488 3438 
L 3059 2003 
L 4488 575 
L 4116 197 
L 2681 1631 
L 1247 197 
L 878 575 
L 2303 2003 
L 878 3438 
L 1247 3816 
L 2681 2381 
L 4116 3816 
L 4488 3438 
z
" transform="scale(0.015625)"/>
      </defs>
      <use xlink:href="#DejaVuSans-d7" transform="translate(0 0.879688)"/>
      <use xlink:href="#ArialMT-31" transform="translate(83.789062 0.879688)"/>
      <use xlink:href="#ArialMT-30" transform="translate(139.404297 0.879688)"/>
      <use xlink:href="#ArialMT-35" transform="translate(196.761875 70.573438) scale(0.7)"/>
     </g>
    </g>
   </g>
   <g id="patch_3">
    <path d="M 81.245455 116.340467 
L 173.162338 116.340467 
L 173.162338 33.343237 
L 81.245455 33.343237 
z
" clip-path="url(#pfb65f19283)" style="fill: #7e03a8; stroke: #ffffff; stroke-linejoin: miter"/>
   </g>
   <g id="patch_4">
    <path d="M 196.141558 116.340467 
L 288.058442 116.340467 
L 288.058442 93.164843 
L 196.141558 93.164843 
z
" clip-path="url(#pfb65f19283)" style="fill: #cc4778; stroke: #ffffff; stroke-linejoin: miter"/>
   </g>
   <g id="patch_5">
    <path d="M 311.037662 116.340467 
L 402.954545 116.340467 
L 402.954545 97.92082 
L 311.037662 97.92082 
z
" clip-path="url(#pfb65f19283)" style="fill: #f89540; stroke: #ffffff; stroke-linejoin: miter"/>
   </g>
   <g id="patch_6">
    <path d="M 65.16 116.340467 
L 65.16 29.193375 
" style="fill: none; stroke: #262626; stroke-width: 1.25; stroke-linejoin: miter; stroke-linecap: square"/>
   </g>
   <g id="patch_7">
    <path d="M 65.16 116.340467 
L 419.04 116.340467 
" style="fill: none; stroke: #262626; stroke-width: 1.25; stroke-linejoin: miter; stroke-linecap: square"/>
   </g>
  </g>
  <g id="axes_2">
   <g id="patch_8">
    <path d="M 65.16 253.948988 
L 419.04 253.948988 
L 419.04 166.801896 
L 65.16 166.801896 
z
" style="fill: #ffffff"/>
   </g>
   <g id="matplotlib.axis_3">
    <g id="xtick_4">
     <g id="text_9">
      <!-- Imaging -->
      <g style="fill: #262626" transform="translate(109.417177 270.6068) scale(0.1 -0.1)">
       <use xlink:href="#ArialMT-49"/>
       <use xlink:href="#ArialMT-6d" transform="translate(27.783203 0)"/>
       <use xlink:href="#ArialMT-61" transform="translate(111.083984 0)"/>
       <use xlink:href="#ArialMT-67" transform="translate(166.699219 0)"/>
       <use xlink:href="#ArialMT-69" transform="translate(222.314453 0)"/>
       <use xlink:href="#ArialMT-6e" transform="translate(244.53125 0)"/>
       <use xlink:href="#ArialMT-67" transform="translate(300.146484 0)"/>
      </g>
     </g>
    </g>
    <g id="xtick_5">
     <g id="text_10">
      <!-- Other -->
      <g style="fill: #262626" transform="translate(229.596094 270.6068) scale(0.1 -0.1)">
       <use xlink:href="#ArialMT-4f"/>
       <use xlink:href="#ArialMT-74" transform="translate(77.783203 0)"/>
       <use xlink:href="#ArialMT-68" transform="translate(105.566406 0)"/>
       <use xlink:href="#ArialMT-65" transform="translate(161.181641 0)"/>
       <use xlink:href="#ArialMT-72" transform="translate(216.796875 0)"/>
      </g>
     </g>
    </g>
    <g id="xtick_6">
     <g id="text_11">
      <!-- Time Series -->
      <g style="fill: #262626" transform="translate(330.51251 270.6068) scale(0.1 -0.1)">
       <use xlink:href="#ArialMT-54"/>
       <use xlink:href="#ArialMT-69" transform="translate(57.333984 0)"/>
       <use xlink:href="#ArialMT-6d" transform="translate(79.550781 0)"/>
       <use xlink:href="#ArialMT-65" transform="translate(162.851562 0)"/>
       <use xlink:href="#ArialMT-20" transform="translate(218.466797 0)"/>
       <use xlink:href="#ArialMT-53" transform="translate(246.25 0)"/>
       <use xlink:href="#ArialMT-65" transform="translate(312.949219 0)"/>
       <use xlink:href="#ArialMT-72" transform="translate(368.564453 0)"/>
       <use xlink:href="#ArialMT-69" transform="translate(401.865234 0)"/>
       <use xlink:href="#ArialMT-65" transform="translate(424.082031 0)"/>
       <use xlink:href="#ArialMT-73" transform="translate(479.697266 0)"/>
      </g>
     </g>
    </g>
   </g>
   <g id="matplotlib.axis_4">
    <g id="ytick_4">
     <g id="text_12">
      <!-- 0 -->
      <g style="fill: #262626" transform="translate(50.099062 257.527894) scale(0.1 -0.1)">
       <use xlink:href="#ArialMT-30"/>
      </g>
     </g>
    </g>
    <g id="ytick_5">
     <g id="text_13">
      <!-- 50 -->
      <g style="fill: #262626" transform="translate(44.538125 221.442142) scale(0.1 -0.1)">
       <use xlink:href="#ArialMT-35"/>
       <use xlink:href="#ArialMT-30" transform="translate(55.615234 0)"/>
      </g>
     </g>
    </g>
    <g id="ytick_6">
     <g id="text_14">
      <!-- 100 -->
      <g style="fill: #262626" transform="translate(38.977187 185.356389) scale(0.1 -0.1)">
       <use xlink:href="#ArialMT-31"/>
       <use xlink:href="#ArialMT-30" transform="translate(55.615234 0)"/>
       <use xlink:href="#ArialMT-30" transform="translate(111.230469 0)"/>
      </g>
     </g>
    </g>
    <g id="text_15">
     <!-- Datasets -->
     <g style="fill: #262626" transform="translate(32.592187 234.052004) rotate(-90) scale(0.12 -0.12)">
      <defs>
       <path id="ArialMT-44" d="M 494 0 
L 494 4581 
L 2072 4581 
Q 2606 4581 2888 4516 
Q 3281 4425 3559 4188 
Q 3922 3881 4101 3404 
Q 4281 2928 4281 2316 
Q 4281 1794 4159 1391 
Q 4038 988 3847 723 
Q 3656 459 3429 307 
Q 3203 156 2883 78 
Q 2563 0 2147 0 
L 494 0 
z
M 1100 541 
L 2078 541 
Q 2531 541 2789 625 
Q 3047 709 3200 863 
Q 3416 1078 3536 1442 
Q 3656 1806 3656 2325 
Q 3656 3044 3420 3430 
Q 3184 3816 2847 3947 
Q 2603 4041 2063 4041 
L 1100 4041 
L 1100 541 
z
" transform="scale(0.015625)"/>
      </defs>
      <use xlink:href="#ArialMT-44"/>
      <use xlink:href="#ArialMT-61" transform="translate(72.216797 0)"/>
      <use xlink:href="#ArialMT-74" transform="translate(127.832031 0)"/>
      <use xlink:href="#ArialMT-61" transform="translate(155.615234 0)"/>
      <use xlink:href="#ArialMT-73" transform="translate(211.230469 0)"/>
      <use xlink:href="#ArialMT-65" transform="translate(261.230469 0)"/>
      <use xlink:href="#ArialMT-74" transform="translate(316.845703 0)"/>
      <use xlink:href="#ArialMT-73" transform="translate(344.628906 0)"/>
     </g>
    </g>
   </g>
   <g id="patch_9">
    <path d="M 81.245455 253.948988 
L 173.162338 253.948988 
L 173.162338 170.951757 
L 81.245455 170.951757 
z
" clip-path="url(#p80601cf8ca)" style="fill: #7e03a8; stroke: #ffffff; stroke-linejoin: miter"/>
   </g>
   <g id="patch_10">
    <path d="M 196.141558 253.948988 
L 288.058442 253.948988 
L 288.058442 186.829488 
L 196.141558 186.829488 
z
" clip-path="url(#p80601cf8ca)" style="fill: #cc4778; stroke: #ffffff; stroke-linejoin: miter"/>
   </g>
   <g id="patch_11">
    <path d="M 311.037662 253.948988 
L 402.954545 253.948988 
L 402.954545 196.933499 
L 311.037662 196.933499 
z
" clip-path="url(#p80601cf8ca)" style="fill: #f89540; stroke: #ffffff; stroke-linejoin: miter"/>
   </g>
   <g id="patch_12">
    <path d="M 65.16 253.948988 
L 65.16 166.801896 
" style="fill: none; stroke: #262626; stroke-width: 1.25; stroke-linejoin: miter; stroke-linecap: square"/>
   </g>
   <g id="patch_13">
    <path d="M 65.16 253.948988 
L 419.04 253.948988 
" style="fill: none; stroke: #262626; stroke-width: 1.25; stroke-linejoin: miter; stroke-linecap: square"/>
   </g>
  </g>
  <g id="axes_3">
   <g id="patch_14">
    <path d="M 65.16 391.557509 
L 419.04 391.557509 
L 419.04 304.410416 
L 65.16 304.410416 
z
" style="fill: #ffffff"/>
   </g>
   <g id="matplotlib.axis_5">
    <g id="xtick_7">
     <g id="text_16">
      <!-- .mat -->
      <g style="fill: #262626" transform="translate(82.100847 419.869863) rotate(-45) scale(0.1 -0.1)">
       <use xlink:href="#ArialMT-2e"/>
       <use xlink:href="#ArialMT-6d" transform="translate(27.783203 0)"/>
       <use xlink:href="#ArialMT-61" transform="translate(111.083984 0)"/>
       <use xlink:href="#ArialMT-74" transform="translate(166.699219 0)"/>
      </g>
     </g>
    </g>
    <g id="xtick_8">
     <g id="text_17">
      <!-- .csv -->
      <g style="fill: #262626" transform="translate(97.448137 418.689879) rotate(-45) scale(0.1 -0.1)">
       <defs>
        <path id="ArialMT-63" d="M 2588 1216 
L 3141 1144 
Q 3050 572 2676 248 
Q 2303 -75 1759 -75 
Q 1078 -75 664 370 
Q 250 816 250 1647 
Q 250 2184 428 2587 
Q 606 2991 970 3192 
Q 1334 3394 1763 3394 
Q 2303 3394 2647 3120 
Q 2991 2847 3088 2344 
L 2541 2259 
Q 2463 2594 2264 2762 
Q 2066 2931 1784 2931 
Q 1359 2931 1093 2626 
Q 828 2322 828 1663 
Q 828 994 1084 691 
Q 1341 388 1753 388 
Q 2084 388 2306 591 
Q 2528 794 2588 1216 
z
" transform="scale(0.015625)"/>
        <path id="ArialMT-76" d="M 1344 0 
L 81 3319 
L 675 3319 
L 1388 1331 
Q 1503 1009 1600 663 
Q 1675 925 1809 1294 
L 2547 3319 
L 3125 3319 
L 1869 0 
L 1344 0 
z
" transform="scale(0.015625)"/>
       </defs>
       <use xlink:href="#ArialMT-2e"/>
       <use xlink:href="#ArialMT-63" transform="translate(27.783203 0)"/>
       <use xlink:href="#ArialMT-73" transform="translate(77.783203 0)"/>
       <use xlink:href="#ArialMT-76" transform="translate(127.783203 0)"/>
      </g>
     </g>
    </g>
    <g id="xtick_9">
     <g id="text_18">
      <!-- .tsq -->
      <g style="fill: #262626" transform="translate(112.792664 417.515419) rotate(-45) scale(0.1 -0.1)">
       <defs>
        <path id="ArialMT-71" d="M 2538 -1272 
L 2538 353 
Q 2406 169 2170 47 
Q 1934 -75 1669 -75 
Q 1078 -75 651 397 
Q 225 869 225 1691 
Q 225 2191 398 2587 
Q 572 2984 901 3189 
Q 1231 3394 1625 3394 
Q 2241 3394 2594 2875 
L 2594 3319 
L 3100 3319 
L 3100 -1272 
L 2538 -1272 
z
M 803 1669 
Q 803 1028 1072 708 
Q 1341 388 1716 388 
Q 2075 388 2334 692 
Q 2594 997 2594 1619 
Q 2594 2281 2320 2615 
Q 2047 2950 1678 2950 
Q 1313 2950 1058 2639 
Q 803 2328 803 1669 
z
" transform="scale(0.015625)"/>
       </defs>
       <use xlink:href="#ArialMT-2e"/>
       <use xlink:href="#ArialMT-74" transform="translate(27.783203 0)"/>
       <use xlink:href="#ArialMT-73" transform="translate(55.566406 0)"/>
       <use xlink:href="#ArialMT-71" transform="translate(105.566406 0)"/>
      </g>
     </g>
    </g>
    <g id="xtick_10">
     <g id="text_19">
      <!-- .tnt -->
      <g style="fill: #262626" transform="translate(128.335514 415.944316) rotate(-45) scale(0.1 -0.1)">
       <use xlink:href="#ArialMT-2e"/>
       <use xlink:href="#ArialMT-74" transform="translate(27.783203 0)"/>
       <use xlink:href="#ArialMT-6e" transform="translate(55.566406 0)"/>
       <use xlink:href="#ArialMT-74" transform="translate(111.181641 0)"/>
      </g>
     </g>
    </g>
    <g id="xtick_11">
     <g id="text_20">
      <!-- .tev -->
      <g style="fill: #262626" transform="translate(142.30726 417.515419) rotate(-45) scale(0.1 -0.1)">
       <use xlink:href="#ArialMT-2e"/>
       <use xlink:href="#ArialMT-74" transform="translate(27.783203 0)"/>
       <use xlink:href="#ArialMT-65" transform="translate(55.566406 0)"/>
       <use xlink:href="#ArialMT-76" transform="translate(111.181641 0)"/>
      </g>
     </g>
    </g>
    <g id="xtick_12">
     <g id="text_21">
      <!-- .tdx -->
      <g style="fill: #262626" transform="translate(157.064558 417.515419) rotate(-45) scale(0.1 -0.1)">
       <defs>
        <path id="ArialMT-64" d="M 2575 0 
L 2575 419 
Q 2259 -75 1647 -75 
Q 1250 -75 917 144 
Q 584 363 401 755 
Q 219 1147 219 1656 
Q 219 2153 384 2558 
Q 550 2963 881 3178 
Q 1213 3394 1622 3394 
Q 1922 3394 2156 3267 
Q 2391 3141 2538 2938 
L 2538 4581 
L 3097 4581 
L 3097 0 
L 2575 0 
z
M 797 1656 
Q 797 1019 1065 703 
Q 1334 388 1700 388 
Q 2069 388 2326 689 
Q 2584 991 2584 1609 
Q 2584 2291 2321 2609 
Q 2059 2928 1675 2928 
Q 1300 2928 1048 2622 
Q 797 2316 797 1656 
z
" transform="scale(0.015625)"/>
        <path id="ArialMT-78" d="M 47 0 
L 1259 1725 
L 138 3319 
L 841 3319 
L 1350 2541 
Q 1494 2319 1581 2169 
Q 1719 2375 1834 2534 
L 2394 3319 
L 3066 3319 
L 1919 1756 
L 3153 0 
L 2463 0 
L 1781 1031 
L 1600 1309 
L 728 0 
L 47 0 
z
" transform="scale(0.015625)"/>
       </defs>
       <use xlink:href="#ArialMT-2e"/>
       <use xlink:href="#ArialMT-74" transform="translate(27.783203 0)"/>
       <use xlink:href="#ArialMT-64" transform="translate(55.566406 0)"/>
       <use xlink:href="#ArialMT-78" transform="translate(111.181641 0)"/>
      </g>
     </g>
    </g>
    <g id="xtick_13">
     <g id="text_22">
      <!-- .rhd -->
      <g style="fill: #262626" transform="translate(171.428527 418.302075) rotate(-45) scale(0.1 -0.1)">
       <use xlink:href="#ArialMT-2e"/>
       <use xlink:href="#ArialMT-72" transform="translate(27.783203 0)"/>
       <use xlink:href="#ArialMT-68" transform="translate(61.083984 0)"/>
       <use xlink:href="#ArialMT-64" transform="translate(116.699219 0)"/>
      </g>
     </g>
    </g>
    <g id="xtick_14">
     <g id="text_23">
      <!-- .abf -->
      <g style="fill: #262626" transform="translate(186.380832 417.912062) rotate(-45) scale(0.1 -0.1)">
       <defs>
        <path id="ArialMT-62" d="M 941 0 
L 419 0 
L 419 4581 
L 981 4581 
L 981 2947 
Q 1338 3394 1891 3394 
Q 2197 3394 2470 3270 
Q 2744 3147 2920 2923 
Q 3097 2700 3197 2384 
Q 3297 2069 3297 1709 
Q 3297 856 2875 390 
Q 2453 -75 1863 -75 
Q 1275 -75 941 416 
L 941 0 
z
M 934 1684 
Q 934 1088 1097 822 
Q 1363 388 1816 388 
Q 2184 388 2453 708 
Q 2722 1028 2722 1663 
Q 2722 2313 2464 2622 
Q 2206 2931 1841 2931 
Q 1472 2931 1203 2611 
Q 934 2291 934 1684 
z
" transform="scale(0.015625)"/>
        <path id="ArialMT-66" d="M 556 0 
L 556 2881 
L 59 2881 
L 59 3319 
L 556 3319 
L 556 3672 
Q 556 4006 616 4169 
Q 697 4388 901 4523 
Q 1106 4659 1475 4659 
Q 1713 4659 2000 4603 
L 1916 4113 
Q 1741 4144 1584 4144 
Q 1328 4144 1222 4034 
Q 1116 3925 1116 3625 
L 1116 3319 
L 1763 3319 
L 1763 2881 
L 1116 2881 
L 1116 0 
L 556 0 
z
" transform="scale(0.015625)"/>
       </defs>
       <use xlink:href="#ArialMT-2e"/>
       <use xlink:href="#ArialMT-61" transform="translate(27.783203 0)"/>
       <use xlink:href="#ArialMT-62" transform="translate(83.398438 0)"/>
       <use xlink:href="#ArialMT-66" transform="translate(139.013672 0)"/>
      </g>
     </g>
    </g>
    <g id="xtick_15">
     <g id="text_24">
      <!-- .ns5 -->
      <g style="fill: #262626" transform="translate(200.352578 419.483164) rotate(-45) scale(0.1 -0.1)">
       <use xlink:href="#ArialMT-2e"/>
       <use xlink:href="#ArialMT-6e" transform="translate(27.783203 0)"/>
       <use xlink:href="#ArialMT-73" transform="translate(83.398438 0)"/>
       <use xlink:href="#ArialMT-35" transform="translate(133.398438 0)"/>
      </g>
     </g>
    </g>
    <g id="xtick_16">
     <g id="text_25">
      <!-- .nev -->
      <g style="fill: #262626" transform="translate(215.109876 419.483164) rotate(-45) scale(0.1 -0.1)">
       <use xlink:href="#ArialMT-2e"/>
       <use xlink:href="#ArialMT-6e" transform="translate(27.783203 0)"/>
       <use xlink:href="#ArialMT-65" transform="translate(83.398438 0)"/>
       <use xlink:href="#ArialMT-76" transform="translate(139.013672 0)"/>
      </g>
     </g>
    </g>
    <g id="xtick_17">
     <g id="text_26">
      <!-- .adicht -->
      <g style="fill: #262626" transform="translate(226.133318 426.950875) rotate(-45) scale(0.1 -0.1)">
       <use xlink:href="#ArialMT-2e"/>
       <use xlink:href="#ArialMT-61" transform="translate(27.783203 0)"/>
       <use xlink:href="#ArialMT-64" transform="translate(83.398438 0)"/>
       <use xlink:href="#ArialMT-69" transform="translate(139.013672 0)"/>
       <use xlink:href="#ArialMT-63" transform="translate(161.230469 0)"/>
       <use xlink:href="#ArialMT-68" transform="translate(211.230469 0)"/>
       <use xlink:href="#ArialMT-74" transform="translate(266.845703 0)"/>
      </g>
     </g>
    </g>
    <g id="xtick_18">
     <g id="text_27">
      <!-- .sev -->
      <g style="fill: #262626" transform="translate(244.822793 419.086522) rotate(-45) scale(0.1 -0.1)">
       <use xlink:href="#ArialMT-2e"/>
       <use xlink:href="#ArialMT-73" transform="translate(27.783203 0)"/>
       <use xlink:href="#ArialMT-65" transform="translate(77.783203 0)"/>
       <use xlink:href="#ArialMT-76" transform="translate(133.398438 0)"/>
      </g>
     </g>
    </g>
    <g id="xtick_19">
     <g id="text_28">
      <!-- .ns2 -->
      <g style="fill: #262626" transform="translate(259.381769 419.483164) rotate(-45) scale(0.1 -0.1)">
       <defs>
        <path id="ArialMT-32" d="M 3222 541 
L 3222 0 
L 194 0 
Q 188 203 259 391 
Q 375 700 629 1000 
Q 884 1300 1366 1694 
Q 2113 2306 2375 2664 
Q 2638 3022 2638 3341 
Q 2638 3675 2398 3904 
Q 2159 4134 1775 4134 
Q 1369 4134 1125 3890 
Q 881 3647 878 3216 
L 300 3275 
Q 359 3922 746 4261 
Q 1134 4600 1788 4600 
Q 2447 4600 2831 4234 
Q 3216 3869 3216 3328 
Q 3216 3053 3103 2787 
Q 2991 2522 2730 2228 
Q 2469 1934 1863 1422 
Q 1356 997 1212 845 
Q 1069 694 975 541 
L 3222 541 
z
" transform="scale(0.015625)"/>
       </defs>
       <use xlink:href="#ArialMT-2e"/>
       <use xlink:href="#ArialMT-6e" transform="translate(27.783203 0)"/>
       <use xlink:href="#ArialMT-73" transform="translate(83.398438 0)"/>
       <use xlink:href="#ArialMT-32" transform="translate(133.398438 0)"/>
      </g>
     </g>
    </g>
    <g id="xtick_20">
     <g id="text_29">
      <!-- .smrx -->
      <g style="fill: #262626" transform="translate(272.181265 423.398768) rotate(-45) scale(0.1 -0.1)">
       <use xlink:href="#ArialMT-2e"/>
       <use xlink:href="#ArialMT-73" transform="translate(27.783203 0)"/>
       <use xlink:href="#ArialMT-6d" transform="translate(77.783203 0)"/>
       <use xlink:href="#ArialMT-72" transform="translate(161.083984 0)"/>
       <use xlink:href="#ArialMT-78" transform="translate(194.384766 0)"/>
      </g>
     </g>
    </g>
    <g id="xtick_21">
     <g id="text_30">
      <!-- .ns1 -->
      <g style="fill: #262626" transform="translate(288.896365 419.483164) rotate(-45) scale(0.1 -0.1)">
       <use xlink:href="#ArialMT-2e"/>
       <use xlink:href="#ArialMT-6e" transform="translate(27.783203 0)"/>
       <use xlink:href="#ArialMT-73" transform="translate(83.398438 0)"/>
       <use xlink:href="#ArialMT-31" transform="translate(133.398438 0)"/>
      </g>
     </g>
    </g>
    <g id="xtick_22">
     <g id="text_31">
      <!-- .smr -->
      <g style="fill: #262626" transform="translate(303.463627 419.863234) rotate(-45) scale(0.1 -0.1)">
       <use xlink:href="#ArialMT-2e"/>
       <use xlink:href="#ArialMT-73" transform="translate(27.783203 0)"/>
       <use xlink:href="#ArialMT-6d" transform="translate(77.783203 0)"/>
       <use xlink:href="#ArialMT-72" transform="translate(161.083984 0)"/>
      </g>
     </g>
    </g>
    <g id="xtick_23">
     <g id="text_32">
      <!-- .eeg -->
      <g style="fill: #262626" transform="translate(318.129775 419.796943) rotate(-45) scale(0.1 -0.1)">
       <use xlink:href="#ArialMT-2e"/>
       <use xlink:href="#ArialMT-65" transform="translate(27.783203 0)"/>
       <use xlink:href="#ArialMT-65" transform="translate(83.398438 0)"/>
       <use xlink:href="#ArialMT-67" transform="translate(139.013672 0)"/>
      </g>
     </g>
    </g>
    <g id="xtick_24">
     <g id="text_33">
      <!-- .vmrk -->
      <g style="fill: #262626" transform="translate(331.210456 423.398768) rotate(-45) scale(0.1 -0.1)">
       <defs>
        <path id="ArialMT-6b" d="M 425 0 
L 425 4581 
L 988 4581 
L 988 1969 
L 2319 3319 
L 3047 3319 
L 1778 2088 
L 3175 0 
L 2481 0 
L 1384 1697 
L 988 1316 
L 988 0 
L 425 0 
z
" transform="scale(0.015625)"/>
       </defs>
       <use xlink:href="#ArialMT-2e"/>
       <use xlink:href="#ArialMT-76" transform="translate(27.783203 0)"/>
       <use xlink:href="#ArialMT-6d" transform="translate(77.783203 0)"/>
       <use xlink:href="#ArialMT-72" transform="translate(161.083984 0)"/>
       <use xlink:href="#ArialMT-6b" transform="translate(194.384766 0)"/>
      </g>
     </g>
    </g>
    <g id="xtick_25">
     <g id="text_34">
      <!-- .vhdr -->
      <g style="fill: #262626" transform="translate(346.748333 421.837609) rotate(-45) scale(0.1 -0.1)">
       <use xlink:href="#ArialMT-2e"/>
       <use xlink:href="#ArialMT-76" transform="translate(27.783203 0)"/>
       <use xlink:href="#ArialMT-68" transform="translate(77.783203 0)"/>
       <use xlink:href="#ArialMT-64" transform="translate(133.398438 0)"/>
       <use xlink:href="#ArialMT-72" transform="translate(189.013672 0)"/>
      </g>
     </g>
    </g>
    <g id="xtick_26">
     <g id="text_35">
      <!-- .acq -->
      <g style="fill: #262626" transform="translate(362.682853 419.483164) rotate(-45) scale(0.1 -0.1)">
       <use xlink:href="#ArialMT-2e"/>
       <use xlink:href="#ArialMT-61" transform="translate(27.783203 0)"/>
       <use xlink:href="#ArialMT-63" transform="translate(83.398438 0)"/>
       <use xlink:href="#ArialMT-71" transform="translate(133.398438 0)"/>
      </g>
     </g>
    </g>
    <g id="xtick_27">
     <g id="text_36">
      <!-- .hdf5 -->
      <g style="fill: #262626" transform="translate(376.259614 421.844238) rotate(-45) scale(0.1 -0.1)">
       <use xlink:href="#ArialMT-2e"/>
       <use xlink:href="#ArialMT-68" transform="translate(27.783203 0)"/>
       <use xlink:href="#ArialMT-64" transform="translate(83.398438 0)"/>
       <use xlink:href="#ArialMT-66" transform="translate(139.013672 0)"/>
       <use xlink:href="#ArialMT-35" transform="translate(166.796875 0)"/>
      </g>
     </g>
    </g>
    <g id="xtick_28">
     <g id="text_37">
      <!-- .h5 -->
      <g style="fill: #262626" transform="translate(393.965216 415.947631) rotate(-45) scale(0.1 -0.1)">
       <use xlink:href="#ArialMT-2e"/>
       <use xlink:href="#ArialMT-68" transform="translate(27.783203 0)"/>
       <use xlink:href="#ArialMT-35" transform="translate(83.398438 0)"/>
      </g>
     </g>
    </g>
   </g>
   <g id="matplotlib.axis_6">
    <g id="ytick_7">
     <g id="text_38">
      <!-- 0 -->
      <g style="fill: #262626" transform="translate(50.099062 395.136415) scale(0.1 -0.1)">
       <use xlink:href="#ArialMT-30"/>
      </g>
     </g>
    </g>
    <g id="ytick_8">
     <g id="text_39">
      <!-- 5000 -->
      <g style="fill: #262626" transform="translate(33.41625 370.506695) scale(0.1 -0.1)">
       <use xlink:href="#ArialMT-35"/>
       <use xlink:href="#ArialMT-30" transform="translate(55.615234 0)"/>
       <use xlink:href="#ArialMT-30" transform="translate(111.230469 0)"/>
       <use xlink:href="#ArialMT-30" transform="translate(166.845703 0)"/>
      </g>
     </g>
    </g>
    <g id="ytick_9">
     <g id="text_40">
      <!-- 10000 -->
      <g style="fill: #262626" transform="translate(27.855312 345.876975) scale(0.1 -0.1)">
       <use xlink:href="#ArialMT-31"/>
       <use xlink:href="#ArialMT-30" transform="translate(55.615234 0)"/>
       <use xlink:href="#ArialMT-30" transform="translate(111.230469 0)"/>
       <use xlink:href="#ArialMT-30" transform="translate(166.845703 0)"/>
       <use xlink:href="#ArialMT-30" transform="translate(222.460938 0)"/>
      </g>
     </g>
    </g>
    <g id="ytick_10">
     <g id="text_41">
      <!-- 15000 -->
      <g style="fill: #262626" transform="translate(27.855312 321.247255) scale(0.1 -0.1)">
       <use xlink:href="#ArialMT-31"/>
       <use xlink:href="#ArialMT-35" transform="translate(55.615234 0)"/>
       <use xlink:href="#ArialMT-30" transform="translate(111.230469 0)"/>
       <use xlink:href="#ArialMT-30" transform="translate(166.845703 0)"/>
       <use xlink:href="#ArialMT-30" transform="translate(222.460938 0)"/>
      </g>
     </g>
    </g>
    <g id="text_42">
     <!-- Time Series Files -->
     <g style="fill: #262626" transform="translate(21.470312 394.09865) rotate(-90) scale(0.12 -0.12)">
      <use xlink:href="#ArialMT-54"/>
      <use xlink:href="#ArialMT-69" transform="translate(57.333984 0)"/>
      <use xlink:href="#ArialMT-6d" transform="translate(79.550781 0)"/>
      <use xlink:href="#ArialMT-65" transform="translate(162.851562 0)"/>
      <use xlink:href="#ArialMT-20" transform="translate(218.466797 0)"/>
      <use xlink:href="#ArialMT-53" transform="translate(246.25 0)"/>
      <use xlink:href="#ArialMT-65" transform="translate(312.949219 0)"/>
      <use xlink:href="#ArialMT-72" transform="translate(368.564453 0)"/>
      <use xlink:href="#ArialMT-69" transform="translate(401.865234 0)"/>
      <use xlink:href="#ArialMT-65" transform="translate(424.082031 0)"/>
      <use xlink:href="#ArialMT-73" transform="translate(479.697266 0)"/>
      <use xlink:href="#ArialMT-20" transform="translate(529.697266 0)"/>
      <use xlink:href="#ArialMT-46" transform="translate(557.480469 0)"/>
      <use xlink:href="#ArialMT-69" transform="translate(618.564453 0)"/>
      <use xlink:href="#ArialMT-6c" transform="translate(640.78125 0)"/>
      <use xlink:href="#ArialMT-65" transform="translate(662.998047 0)"/>
      <use xlink:href="#ArialMT-73" transform="translate(718.613281 0)"/>
     </g>
    </g>
   </g>
   <g id="patch_15">
    <path d="M 81.245455 391.557509 
L 93.051293 391.557509 
L 93.051293 308.560278 
L 81.245455 308.560278 
z
" clip-path="url(#p94bace8aff)" style="fill: #280592; stroke: #ffffff; stroke-linejoin: miter"/>
   </g>
   <g id="patch_16">
    <path d="M 96.002752 391.557509 
L 107.80859 391.557509 
L 107.80859 377.853532 
L 96.002752 377.853532 
z
" clip-path="url(#p94bace8aff)" style="fill: #3c049b; stroke: #ffffff; stroke-linejoin: miter"/>
   </g>
   <g id="patch_17">
    <path d="M 110.76005 391.557509 
L 122.565888 391.557509 
L 122.565888 386.887714 
L 110.76005 386.887714 
z
" clip-path="url(#p94bace8aff)" style="fill: #4e02a2; stroke: #ffffff; stroke-linejoin: miter"/>
   </g>
   <g id="patch_18">
    <path d="M 125.517348 391.557509 
L 137.323186 391.557509 
L 137.323186 386.89264 
L 125.517348 386.89264 
z
" clip-path="url(#p94bace8aff)" style="fill: #6001a6; stroke: #ffffff; stroke-linejoin: miter"/>
   </g>
   <g id="patch_19">
    <path d="M 140.274646 391.557509 
L 152.080484 391.557509 
L 152.080484 386.897566 
L 140.274646 386.897566 
z
" clip-path="url(#p94bace8aff)" style="fill: #7100a8; stroke: #ffffff; stroke-linejoin: miter"/>
   </g>
   <g id="patch_20">
    <path d="M 155.031943 391.557509 
L 166.837781 391.557509 
L 166.837781 386.936973 
L 155.031943 386.936973 
z
" clip-path="url(#p94bace8aff)" style="fill: #8104a7; stroke: #ffffff; stroke-linejoin: miter"/>
   </g>
   <g id="patch_21">
    <path d="M 169.789241 391.557509 
L 181.595079 391.557509 
L 181.595079 387.592124 
L 169.789241 387.592124 
z
" clip-path="url(#p94bace8aff)" style="fill: #910ea3; stroke: #ffffff; stroke-linejoin: miter"/>
   </g>
   <g id="patch_22">
    <path d="M 184.546539 391.557509 
L 196.352377 391.557509 
L 196.352377 388.040385 
L 184.546539 388.040385 
z
" clip-path="url(#p94bace8aff)" style="fill: #a11b9b; stroke: #ffffff; stroke-linejoin: miter"/>
   </g>
   <g id="patch_23">
    <path d="M 199.303837 391.557509 
L 211.109675 391.557509 
L 211.109675 388.262052 
L 199.303837 388.262052 
z
" clip-path="url(#p94bace8aff)" style="fill: #ae2892; stroke: #ffffff; stroke-linejoin: miter"/>
   </g>
   <g id="patch_24">
    <path d="M 214.061134 391.557509 
L 225.866972 391.557509 
L 225.866972 388.414756 
L 214.061134 388.414756 
z
" clip-path="url(#p94bace8aff)" style="fill: #bb3488; stroke: #ffffff; stroke-linejoin: miter"/>
   </g>
   <g id="patch_25">
    <path d="M 228.818432 391.557509 
L 240.62427 391.557509 
L 240.62427 388.670905 
L 228.818432 388.670905 
z
" clip-path="url(#p94bace8aff)" style="fill: #c6417d; stroke: #ffffff; stroke-linejoin: miter"/>
   </g>
   <g id="patch_26">
    <path d="M 243.57573 391.557509 
L 255.381568 391.557509 
L 255.381568 389.193055 
L 243.57573 389.193055 
z
" clip-path="url(#p94bace8aff)" style="fill: #d04d73; stroke: #ffffff; stroke-linejoin: miter"/>
   </g>
   <g id="patch_27">
    <path d="M 258.333028 391.557509 
L 270.138866 391.557509 
L 270.138866 389.838354 
L 258.333028 389.838354 
z
" clip-path="url(#p94bace8aff)" style="fill: #da5a6a; stroke: #ffffff; stroke-linejoin: miter"/>
   </g>
   <g id="patch_28">
    <path d="M 273.090325 391.557509 
L 284.896163 391.557509 
L 284.896163 389.872836 
L 273.090325 389.872836 
z
" clip-path="url(#p94bace8aff)" style="fill: #e26660; stroke: #ffffff; stroke-linejoin: miter"/>
   </g>
   <g id="patch_29">
    <path d="M 287.847623 391.557509 
L 299.653461 391.557509 
L 299.653461 390.828469 
L 287.847623 390.828469 
z
" clip-path="url(#p94bace8aff)" style="fill: #ea7457; stroke: #ffffff; stroke-linejoin: miter"/>
   </g>
   <g id="patch_30">
    <path d="M 302.604921 391.557509 
L 314.410759 391.557509 
L 314.410759 390.926988 
L 302.604921 390.926988 
z
" clip-path="url(#p94bace8aff)" style="fill: #f1834c; stroke: #ffffff; stroke-linejoin: miter"/>
   </g>
   <g id="patch_31">
    <path d="M 317.362219 391.557509 
L 329.168057 391.557509 
L 329.168057 390.931914 
L 317.362219 390.931914 
z
" clip-path="url(#p94bace8aff)" style="fill: #f79143; stroke: #ffffff; stroke-linejoin: miter"/>
   </g>
   <g id="patch_32">
    <path d="M 332.119516 391.557509 
L 343.925354 391.557509 
L 343.925354 390.931914 
L 332.119516 390.931914 
z
" clip-path="url(#p94bace8aff)" style="fill: #fba139; stroke: #ffffff; stroke-linejoin: miter"/>
   </g>
   <g id="patch_33">
    <path d="M 346.876814 391.557509 
L 358.682652 391.557509 
L 358.682652 390.93684 
L 346.876814 390.93684 
z
" clip-path="url(#p94bace8aff)" style="fill: #fdb130; stroke: #ffffff; stroke-linejoin: miter"/>
   </g>
   <g id="patch_34">
    <path d="M 361.634112 391.557509 
L 373.43995 391.557509 
L 373.43995 391.232396 
L 361.634112 391.232396 
z
" clip-path="url(#p94bace8aff)" style="fill: #fdc229; stroke: #ffffff; stroke-linejoin: miter"/>
   </g>
   <g id="patch_35">
    <path d="M 376.39141 391.557509 
L 388.197248 391.557509 
L 388.197248 391.394952 
L 376.39141 391.394952 
z
" clip-path="url(#p94bace8aff)" style="fill: #fbd324; stroke: #ffffff; stroke-linejoin: miter"/>
   </g>
   <g id="patch_36">
    <path d="M 391.148707 391.557509 
L 402.954545 391.557509 
L 402.954545 391.419582 
L 391.148707 391.419582 
z
" clip-path="url(#p94bace8aff)" style="fill: #f6e626; stroke: #ffffff; stroke-linejoin: miter"/>
   </g>
   <g id="patch_37">
    <path d="M 65.16 391.557509 
L 65.16 304.410416 
" style="fill: none; stroke: #262626; stroke-width: 1.25; stroke-linejoin: miter; stroke-linecap: square"/>
   </g>
   <g id="patch_38">
    <path d="M 65.16 391.557509 
L 419.04 391.557509 
" style="fill: none; stroke: #262626; stroke-width: 1.25; stroke-linejoin: miter; stroke-linecap: square"/>
   </g>
  </g>
  <g id="axes_4">
   <g id="patch_39">
    <path d="M 65.16 529.166029 
L 419.04 529.166029 
L 419.04 442.018937 
L 65.16 442.018937 
z
" style="fill: #ffffff"/>
   </g>
   <g id="matplotlib.axis_7">
    <g id="xtick_29">
     <g id="text_43">
      <!-- .tif -->
      <g style="fill: #262626" transform="translate(84.748114 551.191763) rotate(-45) scale(0.1 -0.1)">
       <use xlink:href="#ArialMT-2e"/>
       <use xlink:href="#ArialMT-74" transform="translate(27.783203 0)"/>
       <use xlink:href="#ArialMT-69" transform="translate(55.566406 0)"/>
       <use xlink:href="#ArialMT-66" transform="translate(77.783203 0)"/>
      </g>
     </g>
    </g>
    <g id="xtick_30">
     <g id="text_44">
      <!-- .jpeg -->
      <g style="fill: #262626" transform="translate(94.290036 559.059431) rotate(-45) scale(0.1 -0.1)">
       <defs>
        <path id="ArialMT-6a" d="M 419 3928 
L 419 4581 
L 981 4581 
L 981 3928 
L 419 3928 
z
M -294 -1288 
L -188 -809 
Q -19 -853 78 -853 
Q 250 -853 334 -739 
Q 419 -625 419 -169 
L 419 3319 
L 981 3319 
L 981 -181 
Q 981 -794 822 -1034 
Q 619 -1347 147 -1347 
Q -81 -1347 -294 -1288 
z
" transform="scale(0.015625)"/>
        <path id="ArialMT-70" d="M 422 -1272 
L 422 3319 
L 934 3319 
L 934 2888 
Q 1116 3141 1344 3267 
Q 1572 3394 1897 3394 
Q 2322 3394 2647 3175 
Q 2972 2956 3137 2557 
Q 3303 2159 3303 1684 
Q 3303 1175 3120 767 
Q 2938 359 2589 142 
Q 2241 -75 1856 -75 
Q 1575 -75 1351 44 
Q 1128 163 984 344 
L 984 -1272 
L 422 -1272 
z
M 931 1641 
Q 931 1000 1190 694 
Q 1450 388 1819 388 
Q 2194 388 2461 705 
Q 2728 1022 2728 1688 
Q 2728 2322 2467 2637 
Q 2206 2953 1844 2953 
Q 1484 2953 1207 2617 
Q 931 2281 931 1641 
z
" transform="scale(0.015625)"/>
       </defs>
       <use xlink:href="#ArialMT-2e"/>
       <use xlink:href="#ArialMT-6a" transform="translate(27.783203 0)"/>
       <use xlink:href="#ArialMT-70" transform="translate(50 0)"/>
       <use xlink:href="#ArialMT-65" transform="translate(105.615234 0)"/>
       <use xlink:href="#ArialMT-67" transform="translate(161.230469 0)"/>
      </g>
     </g>
    </g>
    <g id="xtick_31">
     <g id="text_45">
      <!-- .ima -->
      <g style="fill: #262626" transform="translate(108.835844 557.085056) rotate(-45) scale(0.1 -0.1)">
       <use xlink:href="#ArialMT-2e"/>
       <use xlink:href="#ArialMT-69" transform="translate(27.783203 0)"/>
       <use xlink:href="#ArialMT-6d" transform="translate(50 0)"/>
       <use xlink:href="#ArialMT-61" transform="translate(133.300781 0)"/>
      </g>
     </g>
    </g>
    <g id="xtick_32">
     <g id="text_46">
      <!-- .jpg -->
      <g style="fill: #262626" transform="translate(123.290502 555.127254) rotate(-45) scale(0.1 -0.1)">
       <use xlink:href="#ArialMT-2e"/>
       <use xlink:href="#ArialMT-6a" transform="translate(27.783203 0)"/>
       <use xlink:href="#ArialMT-70" transform="translate(50 0)"/>
       <use xlink:href="#ArialMT-67" transform="translate(105.615234 0)"/>
      </g>
     </g>
    </g>
    <g id="xtick_33">
     <g id="text_47">
      <!-- .czi -->
      <g style="fill: #262626" transform="translate(137.245765 554.333969) rotate(-45) scale(0.1 -0.1)">
       <defs>
        <path id="ArialMT-7a" d="M 125 0 
L 125 456 
L 2238 2881 
Q 1878 2863 1603 2863 
L 250 2863 
L 250 3319 
L 2963 3319 
L 2963 2947 
L 1166 841 
L 819 456 
Q 1197 484 1528 484 
L 3063 484 
L 3063 0 
L 125 0 
z
" transform="scale(0.015625)"/>
       </defs>
       <use xlink:href="#ArialMT-2e"/>
       <use xlink:href="#ArialMT-63" transform="translate(27.783203 0)"/>
       <use xlink:href="#ArialMT-7a" transform="translate(77.783203 0)"/>
       <use xlink:href="#ArialMT-69" transform="translate(127.783203 0)"/>
      </g>
     </g>
    </g>
    <g id="xtick_34">
     <g id="text_48">
      <!-- .nd2 -->
      <g style="fill: #262626" transform="translate(149.185775 557.488328) rotate(-45) scale(0.1 -0.1)">
       <use xlink:href="#ArialMT-2e"/>
       <use xlink:href="#ArialMT-6e" transform="translate(27.783203 0)"/>
       <use xlink:href="#ArialMT-64" transform="translate(83.398438 0)"/>
       <use xlink:href="#ArialMT-32" transform="translate(139.013672 0)"/>
      </g>
     </g>
    </g>
    <g id="xtick_35">
     <g id="text_49">
      <!-- .ims -->
      <g style="fill: #262626" transform="translate(163.102921 556.688413) rotate(-45) scale(0.1 -0.1)">
       <use xlink:href="#ArialMT-2e"/>
       <use xlink:href="#ArialMT-69" transform="translate(27.783203 0)"/>
       <use xlink:href="#ArialMT-6d" transform="translate(50 0)"/>
       <use xlink:href="#ArialMT-73" transform="translate(133.300781 0)"/>
      </g>
     </g>
    </g>
    <g id="xtick_36">
     <g id="text_50">
      <!-- .lsm -->
      <g style="fill: #262626" transform="translate(176.620109 556.688413) rotate(-45) scale(0.1 -0.1)">
       <use xlink:href="#ArialMT-2e"/>
       <use xlink:href="#ArialMT-6c" transform="translate(27.783203 0)"/>
       <use xlink:href="#ArialMT-73" transform="translate(50 0)"/>
       <use xlink:href="#ArialMT-6d" transform="translate(100 0)"/>
      </g>
     </g>
    </g>
    <g id="xtick_37">
     <g id="text_51">
      <!-- .png -->
      <g style="fill: #262626" transform="translate(189.654477 557.405464) rotate(-45) scale(0.1 -0.1)">
       <use xlink:href="#ArialMT-2e"/>
       <use xlink:href="#ArialMT-70" transform="translate(27.783203 0)"/>
       <use xlink:href="#ArialMT-6e" transform="translate(83.398438 0)"/>
       <use xlink:href="#ArialMT-67" transform="translate(139.013672 0)"/>
      </g>
     </g>
    </g>
    <g id="xtick_38">
     <g id="text_52">
      <!-- .jpx -->
      <g style="fill: #262626" transform="translate(204.591956 554.730611) rotate(-45) scale(0.1 -0.1)">
       <use xlink:href="#ArialMT-2e"/>
       <use xlink:href="#ArialMT-6a" transform="translate(27.783203 0)"/>
       <use xlink:href="#ArialMT-70" transform="translate(50 0)"/>
       <use xlink:href="#ArialMT-78" transform="translate(105.615234 0)"/>
      </g>
     </g>
    </g>
    <g id="xtick_39">
     <g id="text_53">
      <!-- .lif -->
      <g style="fill: #262626" transform="translate(220.116665 550.798435) rotate(-45) scale(0.1 -0.1)">
       <use xlink:href="#ArialMT-2e"/>
       <use xlink:href="#ArialMT-6c" transform="translate(27.783203 0)"/>
       <use xlink:href="#ArialMT-69" transform="translate(50 0)"/>
       <use xlink:href="#ArialMT-66" transform="translate(72.216797 0)"/>
      </g>
     </g>
    </g>
    <g id="xtick_40">
     <g id="text_54">
      <!-- .jp2 -->
      <g style="fill: #262626" transform="translate(231.438508 555.148246) rotate(-45) scale(0.1 -0.1)">
       <use xlink:href="#ArialMT-2e"/>
       <use xlink:href="#ArialMT-6a" transform="translate(27.783203 0)"/>
       <use xlink:href="#ArialMT-70" transform="translate(50 0)"/>
       <use xlink:href="#ArialMT-32" transform="translate(105.615234 0)"/>
      </g>
     </g>
    </g>
    <g id="xtick_41">
     <g id="text_55">
      <!-- .vsi -->
      <g style="fill: #262626" transform="translate(245.383275 554.333969) rotate(-45) scale(0.1 -0.1)">
       <use xlink:href="#ArialMT-2e"/>
       <use xlink:href="#ArialMT-76" transform="translate(27.783203 0)"/>
       <use xlink:href="#ArialMT-73" transform="translate(77.783203 0)"/>
       <use xlink:href="#ArialMT-69" transform="translate(127.783203 0)"/>
      </g>
     </g>
    </g>
    <g id="xtick_42">
     <g id="text_56">
      <!-- .ets -->
      <g style="fill: #262626" transform="translate(258.505478 555.12394) rotate(-45) scale(0.1 -0.1)">
       <use xlink:href="#ArialMT-2e"/>
       <use xlink:href="#ArialMT-65" transform="translate(27.783203 0)"/>
       <use xlink:href="#ArialMT-74" transform="translate(83.398438 0)"/>
       <use xlink:href="#ArialMT-73" transform="translate(111.181641 0)"/>
      </g>
     </g>
    </g>
    <g id="xtick_43">
     <g id="text_57">
      <!-- .cxd -->
      <g style="fill: #262626" transform="translate(271.237116 556.695042) rotate(-45) scale(0.1 -0.1)">
       <use xlink:href="#ArialMT-2e"/>
       <use xlink:href="#ArialMT-63" transform="translate(27.783203 0)"/>
       <use xlink:href="#ArialMT-78" transform="translate(77.783203 0)"/>
       <use xlink:href="#ArialMT-64" transform="translate(127.783203 0)"/>
      </g>
     </g>
    </g>
    <g id="xtick_44">
     <g id="text_58">
      <!-- .roi -->
      <g style="fill: #262626" transform="translate(286.327064 553.549522) rotate(-45) scale(0.1 -0.1)">
       <defs>
        <path id="ArialMT-6f" d="M 213 1659 
Q 213 2581 725 3025 
Q 1153 3394 1769 3394 
Q 2453 3394 2887 2945 
Q 3322 2497 3322 1706 
Q 3322 1066 3130 698 
Q 2938 331 2570 128 
Q 2203 -75 1769 -75 
Q 1072 -75 642 372 
Q 213 819 213 1659 
z
M 791 1659 
Q 791 1022 1069 705 
Q 1347 388 1769 388 
Q 2188 388 2466 706 
Q 2744 1025 2744 1678 
Q 2744 2294 2464 2611 
Q 2184 2928 1769 2928 
Q 1347 2928 1069 2612 
Q 791 2297 791 1659 
z
" transform="scale(0.015625)"/>
       </defs>
       <use xlink:href="#ArialMT-2e"/>
       <use xlink:href="#ArialMT-72" transform="translate(27.783203 0)"/>
       <use xlink:href="#ArialMT-6f" transform="translate(61.083984 0)"/>
       <use xlink:href="#ArialMT-69" transform="translate(116.699219 0)"/>
      </g>
     </g>
    </g>
    <g id="xtick_45">
     <g id="text_59">
      <!-- .avi -->
      <g style="fill: #262626" transform="translate(299.253708 554.730611) rotate(-45) scale(0.1 -0.1)">
       <use xlink:href="#ArialMT-2e"/>
       <use xlink:href="#ArialMT-61" transform="translate(27.783203 0)"/>
       <use xlink:href="#ArialMT-76" transform="translate(83.398438 0)"/>
       <use xlink:href="#ArialMT-69" transform="translate(133.398438 0)"/>
      </g>
     </g>
    </g>
    <g id="xtick_46">
     <g id="text_60">
      <!-- .tiff -->
      <g style="fill: #262626" transform="translate(313.619978 553.03245) rotate(-45) scale(0.1 -0.1)">
       <use xlink:href="#ArialMT-2e"/>
       <use xlink:href="#ArialMT-74" transform="translate(27.783203 0)"/>
       <use xlink:href="#ArialMT-69" transform="translate(55.566406 0)"/>
       <use xlink:href="#ArialMT-66" transform="translate(77.783203 0)"/>
       <use xlink:href="#ArialMT-66" transform="translate(103.816406 0)"/>
      </g>
     </g>
    </g>
    <g id="xtick_47">
     <g id="text_61">
      <!-- .dm3 -->
      <g style="fill: #262626" transform="translate(323.930327 559.44613) rotate(-45) scale(0.1 -0.1)">
       <defs>
        <path id="ArialMT-33" d="M 269 1209 
L 831 1284 
Q 928 806 1161 595 
Q 1394 384 1728 384 
Q 2125 384 2398 659 
Q 2672 934 2672 1341 
Q 2672 1728 2419 1979 
Q 2166 2231 1775 2231 
Q 1616 2231 1378 2169 
L 1441 2663 
Q 1497 2656 1531 2656 
Q 1891 2656 2178 2843 
Q 2466 3031 2466 3422 
Q 2466 3731 2256 3934 
Q 2047 4138 1716 4138 
Q 1388 4138 1169 3931 
Q 950 3725 888 3313 
L 325 3413 
Q 428 3978 793 4289 
Q 1159 4600 1703 4600 
Q 2078 4600 2393 4439 
Q 2709 4278 2876 4000 
Q 3044 3722 3044 3409 
Q 3044 3113 2884 2869 
Q 2725 2625 2413 2481 
Q 2819 2388 3044 2092 
Q 3269 1797 3269 1353 
Q 3269 753 2831 336 
Q 2394 -81 1725 -81 
Q 1122 -81 723 278 
Q 325 638 269 1209 
z
" transform="scale(0.015625)"/>
       </defs>
       <use xlink:href="#ArialMT-2e"/>
       <use xlink:href="#ArialMT-64" transform="translate(27.783203 0)"/>
       <use xlink:href="#ArialMT-6d" transform="translate(83.398438 0)"/>
       <use xlink:href="#ArialMT-33" transform="translate(166.699219 0)"/>
      </g>
     </g>
    </g>
    <g id="xtick_48">
     <g id="text_62">
      <!-- .bmp -->
      <g style="fill: #262626" transform="translate(337.447515 559.44613) rotate(-45) scale(0.1 -0.1)">
       <use xlink:href="#ArialMT-2e"/>
       <use xlink:href="#ArialMT-62" transform="translate(27.783203 0)"/>
       <use xlink:href="#ArialMT-6d" transform="translate(83.398438 0)"/>
       <use xlink:href="#ArialMT-70" transform="translate(166.699219 0)"/>
      </g>
     </g>
    </g>
    <g id="xtick_49">
     <g id="text_63">
      <!-- .mrxs -->
      <g style="fill: #262626" transform="translate(350.184124 561.007289) rotate(-45) scale(0.1 -0.1)">
       <use xlink:href="#ArialMT-2e"/>
       <use xlink:href="#ArialMT-6d" transform="translate(27.783203 0)"/>
       <use xlink:href="#ArialMT-72" transform="translate(111.083984 0)"/>
       <use xlink:href="#ArialMT-78" transform="translate(144.384766 0)"/>
       <use xlink:href="#ArialMT-73" transform="translate(194.384766 0)"/>
      </g>
     </g>
    </g>
    <g id="xtick_50">
     <g id="text_64">
      <!-- .ipf -->
      <g style="fill: #262626" transform="translate(367.668293 553.245687) rotate(-45) scale(0.1 -0.1)">
       <use xlink:href="#ArialMT-2e"/>
       <use xlink:href="#ArialMT-69" transform="translate(27.783203 0)"/>
       <use xlink:href="#ArialMT-70" transform="translate(50 0)"/>
       <use xlink:href="#ArialMT-66" transform="translate(105.615234 0)"/>
      </g>
     </g>
    </g>
    <g id="xtick_51">
     <g id="text_65">
      <!-- .svs -->
      <g style="fill: #262626" transform="translate(379.572946 556.2984) rotate(-45) scale(0.1 -0.1)">
       <use xlink:href="#ArialMT-2e"/>
       <use xlink:href="#ArialMT-73" transform="translate(27.783203 0)"/>
       <use xlink:href="#ArialMT-76" transform="translate(77.783203 0)"/>
       <use xlink:href="#ArialMT-73" transform="translate(127.783203 0)"/>
      </g>
     </g>
    </g>
    <g id="xtick_52">
     <g id="text_66">
      <!-- .pxp -->
      <g style="fill: #262626" transform="translate(392.693492 557.091685) rotate(-45) scale(0.1 -0.1)">
       <use xlink:href="#ArialMT-2e"/>
       <use xlink:href="#ArialMT-70" transform="translate(27.783203 0)"/>
       <use xlink:href="#ArialMT-78" transform="translate(83.398438 0)"/>
       <use xlink:href="#ArialMT-70" transform="translate(133.398438 0)"/>
      </g>
     </g>
    </g>
   </g>
   <g id="matplotlib.axis_8">
    <g id="ytick_11">
     <g id="text_67">
      <!-- 0 -->
      <g style="fill: #262626" transform="translate(50.099062 532.744936) scale(0.1 -0.1)">
       <use xlink:href="#ArialMT-30"/>
      </g>
     </g>
    </g>
    <g id="ytick_12">
     <g id="text_68">
      <!-- 25000 -->
      <g style="fill: #262626" transform="translate(27.855312 510.939824) scale(0.1 -0.1)">
       <use xlink:href="#ArialMT-32"/>
       <use xlink:href="#ArialMT-35" transform="translate(55.615234 0)"/>
       <use xlink:href="#ArialMT-30" transform="translate(111.230469 0)"/>
       <use xlink:href="#ArialMT-30" transform="translate(166.845703 0)"/>
       <use xlink:href="#ArialMT-30" transform="translate(222.460938 0)"/>
      </g>
     </g>
    </g>
    <g id="ytick_13">
     <g id="text_69">
      <!-- 50000 -->
      <g style="fill: #262626" transform="translate(27.855312 489.134713) scale(0.1 -0.1)">
       <use xlink:href="#ArialMT-35"/>
       <use xlink:href="#ArialMT-30" transform="translate(55.615234 0)"/>
       <use xlink:href="#ArialMT-30" transform="translate(111.230469 0)"/>
       <use xlink:href="#ArialMT-30" transform="translate(166.845703 0)"/>
       <use xlink:href="#ArialMT-30" transform="translate(222.460938 0)"/>
      </g>
     </g>
    </g>
    <g id="ytick_14">
     <g id="text_70">
      <!-- 75000 -->
      <g style="fill: #262626" transform="translate(27.855312 467.329602) scale(0.1 -0.1)">
       <defs>
        <path id="ArialMT-37" d="M 303 3981 
L 303 4522 
L 3269 4522 
L 3269 4084 
Q 2831 3619 2401 2847 
Q 1972 2075 1738 1259 
Q 1569 684 1522 0 
L 944 0 
Q 953 541 1156 1306 
Q 1359 2072 1739 2783 
Q 2119 3494 2547 3981 
L 303 3981 
z
" transform="scale(0.015625)"/>
       </defs>
       <use xlink:href="#ArialMT-37"/>
       <use xlink:href="#ArialMT-35" transform="translate(55.615234 0)"/>
       <use xlink:href="#ArialMT-30" transform="translate(111.230469 0)"/>
       <use xlink:href="#ArialMT-30" transform="translate(166.845703 0)"/>
       <use xlink:href="#ArialMT-30" transform="translate(222.460938 0)"/>
      </g>
     </g>
    </g>
    <g id="text_71">
     <!-- Imaging Files -->
     <g style="fill: #262626" transform="translate(21.329687 521.270921) rotate(-90) scale(0.12 -0.12)">
      <use xlink:href="#ArialMT-49"/>
      <use xlink:href="#ArialMT-6d" transform="translate(27.783203 0)"/>
      <use xlink:href="#ArialMT-61" transform="translate(111.083984 0)"/>
      <use xlink:href="#ArialMT-67" transform="translate(166.699219 0)"/>
      <use xlink:href="#ArialMT-69" transform="translate(222.314453 0)"/>
      <use xlink:href="#ArialMT-6e" transform="translate(244.53125 0)"/>
      <use xlink:href="#ArialMT-67" transform="translate(300.146484 0)"/>
      <use xlink:href="#ArialMT-20" transform="translate(355.761719 0)"/>
      <use xlink:href="#ArialMT-46" transform="translate(383.544922 0)"/>
      <use xlink:href="#ArialMT-69" transform="translate(444.628906 0)"/>
      <use xlink:href="#ArialMT-6c" transform="translate(466.845703 0)"/>
      <use xlink:href="#ArialMT-65" transform="translate(489.0625 0)"/>
      <use xlink:href="#ArialMT-73" transform="translate(544.677734 0)"/>
     </g>
    </g>
   </g>
   <g id="patch_40">
    <path d="M 81.245455 529.166029 
L 92.059206 529.166029 
L 92.059206 446.168799 
L 81.245455 446.168799 
z
" clip-path="url(#p124d0304d0)" style="fill: #260591; stroke: #ffffff; stroke-linejoin: miter"/>
   </g>
   <g id="patch_41">
    <path d="M 94.762643 529.166029 
L 105.576394 529.166029 
L 105.576394 519.602308 
L 94.762643 519.602308 
z
" clip-path="url(#p124d0304d0)" style="fill: #38049a; stroke: #ffffff; stroke-linejoin: miter"/>
   </g>
   <g id="patch_42">
    <path d="M 108.279832 529.166029 
L 119.093583 529.166029 
L 119.093583 523.304815 
L 108.279832 523.304815 
z
" clip-path="url(#p124d0304d0)" style="fill: #4903a0; stroke: #ffffff; stroke-linejoin: miter"/>
   </g>
   <g id="patch_43">
    <path d="M 121.797021 529.166029 
L 132.610772 529.166029 
L 132.610772 523.73394 
L 121.797021 523.73394 
z
" clip-path="url(#p124d0304d0)" style="fill: #5901a5; stroke: #ffffff; stroke-linejoin: miter"/>
   </g>
   <g id="patch_44">
    <path d="M 135.314209 529.166029 
L 146.12796 529.166029 
L 146.12796 525.03963 
L 135.314209 525.03963 
z
" clip-path="url(#p124d0304d0)" style="fill: #6a00a8; stroke: #ffffff; stroke-linejoin: miter"/>
   </g>
   <g id="patch_45">
    <path d="M 148.831398 529.166029 
L 159.645149 529.166029 
L 159.645149 527.676304 
L 148.831398 527.676304 
z
" clip-path="url(#p124d0304d0)" style="fill: #7a02a8; stroke: #ffffff; stroke-linejoin: miter"/>
   </g>
   <g id="patch_46">
    <path d="M 162.348587 529.166029 
L 173.162338 529.166029 
L 173.162338 527.818473 
L 162.348587 527.818473 
z
" clip-path="url(#p124d0304d0)" style="fill: #8808a6; stroke: #ffffff; stroke-linejoin: miter"/>
   </g>
   <g id="patch_47">
    <path d="M 175.865775 529.166029 
L 186.679526 529.166029 
L 186.679526 528.372323 
L 175.865775 528.372323 
z
" clip-path="url(#p124d0304d0)" style="fill: #9613a1; stroke: #ffffff; stroke-linejoin: miter"/>
   </g>
   <g id="patch_48">
    <path d="M 189.382964 529.166029 
L 200.196715 529.166029 
L 200.196715 528.888668 
L 189.382964 528.888668 
z
" clip-path="url(#p124d0304d0)" style="fill: #a51f99; stroke: #ffffff; stroke-linejoin: miter"/>
   </g>
   <g id="patch_49">
    <path d="M 202.900153 529.166029 
L 213.713904 529.166029 
L 213.713904 528.924429 
L 202.900153 528.924429 
z
" clip-path="url(#p124d0304d0)" style="fill: #b12a90; stroke: #ffffff; stroke-linejoin: miter"/>
   </g>
   <g id="patch_50">
    <path d="M 216.417341 529.166029 
L 227.231092 529.166029 
L 227.231092 528.9724 
L 216.417341 528.9724 
z
" clip-path="url(#p124d0304d0)" style="fill: #bc3587; stroke: #ffffff; stroke-linejoin: miter"/>
   </g>
   <g id="patch_51">
    <path d="M 229.93453 529.166029 
L 240.748281 529.166029 
L 240.748281 528.982866 
L 229.93453 528.982866 
z
" clip-path="url(#p124d0304d0)" style="fill: #c6417d; stroke: #ffffff; stroke-linejoin: miter"/>
   </g>
   <g id="patch_52">
    <path d="M 243.451719 529.166029 
L 254.26547 529.166029 
L 254.26547 529.029965 
L 243.451719 529.029965 
z
" clip-path="url(#p124d0304d0)" style="fill: #d04d73; stroke: #ffffff; stroke-linejoin: miter"/>
   </g>
   <g id="patch_53">
    <path d="M 256.968908 529.166029 
L 267.782659 529.166029 
L 267.782659 529.041304 
L 256.968908 529.041304 
z
" clip-path="url(#p124d0304d0)" style="fill: #d9586a; stroke: #ffffff; stroke-linejoin: miter"/>
   </g>
   <g id="patch_54">
    <path d="M 270.486096 529.166029 
L 281.299847 529.166029 
L 281.299847 529.064854 
L 270.486096 529.064854 
z
" clip-path="url(#p124d0304d0)" style="fill: #e16462; stroke: #ffffff; stroke-linejoin: miter"/>
   </g>
   <g id="patch_55">
    <path d="M 284.003285 529.166029 
L 294.817036 529.166029 
L 294.817036 529.101486 
L 284.003285 529.101486 
z
" clip-path="url(#p124d0304d0)" style="fill: #e87059; stroke: #ffffff; stroke-linejoin: miter"/>
   </g>
   <g id="patch_56">
    <path d="M 297.520474 529.166029 
L 308.334225 529.166029 
L 308.334225 529.120675 
L 297.520474 529.120675 
z
" clip-path="url(#p124d0304d0)" style="fill: #ef7e50; stroke: #ffffff; stroke-linejoin: miter"/>
   </g>
   <g id="patch_57">
    <path d="M 311.037662 529.166029 
L 321.851413 529.166029 
L 321.851413 529.125036 
L 311.037662 529.125036 
z
" clip-path="url(#p124d0304d0)" style="fill: #f58b47; stroke: #ffffff; stroke-linejoin: miter"/>
   </g>
   <g id="patch_58">
    <path d="M 324.554851 529.166029 
L 335.368602 529.166029 
L 335.368602 529.147713 
L 324.554851 529.147713 
z
" clip-path="url(#p124d0304d0)" style="fill: #f9983e; stroke: #ffffff; stroke-linejoin: miter"/>
   </g>
   <g id="patch_59">
    <path d="M 338.07204 529.166029 
L 348.885791 529.166029 
L 348.885791 529.148585 
L 338.07204 529.148585 
z
" clip-path="url(#p124d0304d0)" style="fill: #fca636; stroke: #ffffff; stroke-linejoin: miter"/>
   </g>
   <g id="patch_60">
    <path d="M 351.589228 529.166029 
L 362.402979 529.166029 
L 362.402979 529.15033 
L 351.589228 529.15033 
z
" clip-path="url(#p124d0304d0)" style="fill: #feb72d; stroke: #ffffff; stroke-linejoin: miter"/>
   </g>
   <g id="patch_61">
    <path d="M 365.106417 529.166029 
L 375.920168 529.166029 
L 375.920168 529.152946 
L 365.106417 529.152946 
z
" clip-path="url(#p124d0304d0)" style="fill: #fdc627; stroke: #ffffff; stroke-linejoin: miter"/>
   </g>
   <g id="patch_62">
    <path d="M 378.623606 529.166029 
L 389.437357 529.166029 
L 389.437357 529.159924 
L 378.623606 529.159924 
z
" clip-path="url(#p124d0304d0)" style="fill: #fbd724; stroke: #ffffff; stroke-linejoin: miter"/>
   </g>
   <g id="patch_63">
    <path d="M 392.140794 529.166029 
L 402.954545 529.166029 
L 402.954545 529.165157 
L 392.140794 529.165157 
z
" clip-path="url(#p124d0304d0)" style="fill: #f6e826; stroke: #ffffff; stroke-linejoin: miter"/>
   </g>
   <g id="patch_64">
    <path d="M 65.16 529.166029 
L 65.16 442.018937 
" style="fill: none; stroke: #262626; stroke-width: 1.25; stroke-linejoin: miter; stroke-linecap: square"/>
   </g>
   <g id="patch_65">
    <path d="M 65.16 529.166029 
L 419.04 529.166029 
" style="fill: none; stroke: #262626; stroke-width: 1.25; stroke-linejoin: miter; stroke-linecap: square"/>
   </g>
  </g>
 </g>
 <defs>
  <clipPath id="pfb65f19283">
   <rect x="65.16" y="29.193375" width="353.88" height="87.147092"/>
  </clipPath>
  <clipPath id="p80601cf8ca">
   <rect x="65.16" y="166.801896" width="353.88" height="87.147092"/>
  </clipPath>
  <clipPath id="p94bace8aff">
   <rect x="65.16" y="304.410416" width="353.88" height="87.147092"/>
  </clipPath>
  <clipPath id="p124d0304d0">
   <rect x="65.16" y="442.018937" width="353.88" height="87.147092"/>
  </clipPath>
 </defs>
</svg>
